<svg width="130" height="26" viewBox="0 0 130 26" xmlns="http://www.w3.org/2000/svg" xmlns:xlink="http://www.w3.org/1999/xlink">
    <defs>
        <path id="su26afgg4a" d="M0 26h129.257V0H0z"/>
    </defs>
    <g fill="none" fill-rule="evenodd">
        <path d="M16.638 18.088c0 1.488.397 2.663 1.19 3.529.816.876 1.89 1.313 3.224 1.313 1.344 0 2.418-.432 3.223-1.298.804-.865 1.207-2.021 1.207-3.467 0-1.446-.403-2.602-1.207-3.468-.815-.875-1.89-1.313-3.223-1.313-1.314 0-2.377.438-3.193 1.313-.814.877-1.221 2.007-1.221 3.391m-3.513-.06c0-2.15.768-3.977 2.306-5.485 1.538-1.506 3.411-2.26 5.621-2.26 2.22 0 4.104.759 5.652 2.276 1.527 1.517 2.29 3.38 2.29 5.59 0 2.23-.768 4.1-2.305 5.606-1.549 1.497-3.448 2.246-5.698 2.246-2.23 0-4.099-.764-5.605-2.291-1.508-1.507-2.261-3.401-2.261-5.683" fill="#FFF"/>
        <mask id="l25l2ltwrb" fill="#fff">
            <use xlink:href="#su26afgg4a"/>
        </mask>
        <path fill="#FFF" mask="url(#l25l2ltwrb)" d="M32.466 25.573h3.437V0h-3.437zM42.888 18.088c0 1.488.397 2.663 1.191 3.529.815.876 1.89 1.313 3.223 1.313 1.345 0 2.419-.432 3.223-1.298.805-.865 1.207-2.021 1.207-3.467 0-1.446-.402-2.602-1.207-3.468-.814-.875-1.889-1.313-3.223-1.313-1.313 0-2.377.438-3.192 1.313-.815.877-1.222 2.007-1.222 3.391m10.051 4.83C51.809 24.538 49.492 26 47.241 26c-2.23 0-4.098-.764-5.605-2.291-1.507-1.507-2.261-3.401-2.261-5.683 0-2.148.769-3.976 2.306-5.484 1.538-1.506 3.412-2.26 5.621-2.26 2.568 0 4.43 1.31 5.652 3.114"/>
        <path fill="#FFF" mask="url(#l25l2ltwrb)" d="M51.809 12.05V0h3.437v25.573h-3.437v-1.359M61.929 18.088c0 1.488.397 2.663 1.19 3.529.816.876 1.89 1.313 3.224 1.313 1.344 0 2.418-.432 3.223-1.298.804-.865 1.207-2.021 1.207-3.467 0-1.446-.403-2.602-1.207-3.468-.815-.875-1.889-1.313-3.223-1.313-1.314 0-2.377.438-3.192 1.313-.815.877-1.222 2.007-1.222 3.391m-3.513-.06c0-2.15.768-3.977 2.306-5.485 1.538-1.506 3.411-2.26 5.621-2.26 2.22 0 4.104.759 5.652 2.276 1.527 1.517 2.29 3.38 2.29 5.59 0 2.23-.768 4.1-2.305 5.606-1.549 1.497-3.447 2.246-5.698 2.246-2.23 0-4.099-.764-5.605-2.291-1.508-1.507-2.261-3.401-2.261-5.683M80.592 10.695v8.54c0 2.463.972 3.695 2.917 3.695 1.945 0 2.918-1.232 2.918-3.696v-8.539h3.436v8.615c0 1.192-.147 2.22-.443 3.086-.285.774-.779 1.472-1.481 2.093C86.778 25.497 85.3 26 83.509 26c-1.782 0-3.253-.504-4.414-1.512-.713-.621-1.217-1.319-1.513-2.093-.285-.692-.427-1.721-.427-3.086v-8.615h3.437zM96.773 14.167l-.001 11.406h-3.437V0h3.437v10.695h3.439l.002 3.472zM103.684 25.573h25.573v-3.471h-25.573zM9.669 18.348c-.632-.662-1.859-1.385-3.681-2.17-1.324-.559-1.986-1.124-1.986-1.694 0-.326.112-.593.336-.803.224-.208.494-.312.81-.312.661 0 1.217.458 1.664 1.374l2.842-1.512c-.927-1.965-2.343-2.948-4.247-2.948-1.293 0-2.393.423-3.299 1.268-.886.845-1.329 1.914-1.329 3.207 0 .978.26 1.778.78 2.399.407.488 1.109.977 2.107 1.466.356.173.708.341 1.054.504.346.163.692.331 1.039.504.896.53 1.344 1.1 1.344 1.711 0 1.06-.58 1.588-1.741 1.588l-.053-.001c-.203 0-.39-.029-.564-.08h-.004a2.194 2.194 0 0 1-.832-.472l-.002-.001c-.712-.63-1.013-1.568-1.013-1.568L0 22.35C1.039 24.784 2.805 26 5.3 26c1.457 0 2.699-.457 3.727-1.374 1.06-.967 1.589-2.17 1.589-3.605 0-1.12-.316-2.01-.947-2.673"/>
    </g>
</svg>
